<svg enable-background="new 0 0 410.2 277.8" viewBox="0 0 410.2 277.8" xmlns="http://www.w3.org/2000/svg" xmlns:xlink="http://www.w3.org/1999/xlink"><clipPath id="a"><path d="m0 0h410.2v277.8h-410.2z"/></clipPath><g fill="#fff"><path clip-path="url(#a)" d="m25.3 236.1v40.8h-10.4v-40.8h-9.8c-3.7 0-5.1-1.5-5.1-5.1v-3.5h35.1c3.7 0 5.1 1.5 5.1 5.1v3.5z"/><path clip-path="url(#a)" d="m49.9 227.4c3.7 0 5.1 1.5 5.1 5.1v12.3c2.3-3.3 5.6-5.6 11.1-5.6 7.3 0 12.3 4.8 12.3 14.3v23.2h-9.7v-20.7c0-5.3-1.3-8.7-6.2-8.7-5.7 0-7.6 5.2-7.6 11.1v18.4h-9.7v-49.4z"/><path clip-path="url(#a)" d="m96.5 230.7c0 3.1-2.5 5.5-5.6 5.5-3 0-5.5-2.4-5.5-5.5s2.5-5.6 5.5-5.6c3.1.1 5.6 2.6 5.6 5.6m-.7 46.2h-9.7v-36.6h4.5c3.7 0 5.1 1.5 5.1 5.1v31.5z"/><path clip-path="url(#a)" d="m108 240.3c3.7 0 5.1 1.5 5.1 5.1v.1c2.3-3.7 5.7-6.2 11.4-6.2 7.3 0 12.3 4.8 12.3 14.3v23.2h-9.7v-20.8c0-5.3-1.3-8.7-6.2-8.7-5.7 0-7.6 5.2-7.6 11.1v18.4h-9.7v-36.6h4.4z"/><path clip-path="url(#a)" d="m154.3 254.3 11.3-14h11.7l-14.4 16.6 16.6 20h-12.2l-13.1-15.8v15.8h-9.7v-49.4h4.5c3.7 0 5.1 1.5 5.1 5.1v21.7z"/><path clip-path="url(#a)" d="m213.8 246.6c-4.2 0-6.8 1.5-7.2 5h-9.6c0-8.4 8.3-12.2 16.5-12.2 9.6 0 15.7 3.1 15.7 14.3v23.2h-9.2v-5c-2.3 3.6-6.1 5.9-12.2 5.9-7.3 0-11.7-4.3-11.7-10.4 0-8.1 5.6-10.3 13.8-11.5l1-.1c7.8-1.1 9.2-1.8 9.2-4.9-.1-2.8-2.5-4.3-6.3-4.3m6.2 13.5v-.7c-1.4 1-3.8 1.5-7.8 2l-1 .1c-3.7.5-5.3 1.9-5.3 4.8 0 2.3 1.5 4.3 4.7 4.3 4.5 0 9.4-3.1 9.4-10.5"/><path clip-path="url(#a)" d="m241.4 227.4c3.7 0 5.1 1.5 5.1 5.1v12.3c2.3-3.3 5.6-5.6 11.1-5.6 7.3 0 12.3 4.8 12.3 14.3v23.2h-9.7v-20.7c0-5.3-1.3-8.7-6.2-8.7-5.7 0-7.6 5.2-7.6 11.1v18.4h-9.7v-49.4z"/><path clip-path="url(#a)" d="m286.1 261c.5 5.2 2.8 9.5 8.2 9.5 3.8 0 6-1.5 7.1-4.4h9.7c-1.5 7.8-8.4 11.7-16.8 11.7-10.9 0-17.7-6.8-17.7-19.2 0-10.9 6.9-19.3 17.9-19.3 10.3 0 17.2 6.5 17.2 19v2.7zm.3-6.3h15.6c-.6-5.6-3.6-8-7.6-8-4.2 0-7.1 3-8 8"/><path clip-path="url(#a)" d="m334.1 246.6c-4.2 0-6.8 1.5-7.2 5h-9.6c0-8.4 8.3-12.2 16.5-12.2 9.6 0 15.7 3.1 15.7 14.3v23.2h-9.2v-5c-2.3 3.6-6.1 5.9-12.2 5.9-7.3 0-11.7-4.3-11.7-10.4 0-8.1 5.6-10.3 13.8-11.5l1-.1c7.8-1.1 9.2-1.8 9.2-4.9 0-2.8-2.5-4.3-6.3-4.3m6.3 13.5v-.7c-1.4 1-3.8 1.5-7.8 2l-1 .1c-3.7.5-5.3 1.9-5.3 4.8 0 2.3 1.5 4.3 4.7 4.3 4.5 0 9.4-3.1 9.4-10.5"/><path clip-path="url(#a)" d="m382.6 276.9v-5.4c-2.7 4.5-6 6.4-11.2 6.4-9.8 0-15.3-8.4-15.3-19.2 0-10.3 5.1-19.3 15.9-19.3 4.2 0 7.8 2.1 10.1 5.6v-17.5h4.5c3.7 0 5.1 1.5 5.1 5.1v44.3zm-16.6-18.3c0 5.4 2.1 11.2 8.2 11.2s8.2-5.9 8.2-11.3-2.1-11.2-8.2-11.2c-6 0-8.2 5.9-8.2 11.3"/><path clip-path="url(#a)" d="m410.2 272c0 3.2-2.6 5.8-5.9 5.8-3.2 0-5.9-2.6-5.9-5.8s2.6-5.9 5.9-5.9c3.2.1 5.9 2.7 5.9 5.9"/><path clip-path="url(#a)" d="m52.4 15.3s43.4-15.2 80-15.2c46.3 0 91.3 21.2 149.2 21.7 57.3.5 91-19.4 91-19.4s-16.4 42.1-90.2 42.1c-51.8 0-98.2-19.6-134-28.3-42.3-10.2-96-.9-96-.9"/><path clip-path="url(#a)" d="m304.7 106.3 25.9 40.6h-25.5l-20.7-32.6-5.8 32.7h-19.4l12.4-77.6h19.4l-4.5 31.6 29.6-31.6 25.5.1zm22.3 10.8c-5.2 0-9.7-4-9.7-9.5 0-5.4 4.4-9.4 9.7-9.4 5.2 0 9.6 4 9.6 9.4 0 5.5-4.4 9.5-9.6 9.5m-72.3-28c-1.5 23-20.7 26.6-20.7 26.6l18.5 31.2h-24.5l-14.6-29.5-5.4 29.6h-19.6l12.3-77.6 31.1.1c.1-.1 24.3-.5 22.9 19.6m-67.1 20c-3.6 23.3-26.1 42-50.2 41.9-24.2-.1-40.8-19.1-37.3-42.4 3.6-23.3 26.8-42.6 51-42.4s40.1 19.7 36.5 42.9m-109.3 37.8h-20.5l9.5-60.6h-16.4l2.8-17.1h53.8l-2.6 17.1h-17.3zm203.5-93.1c-47.4 0-95.8-17.9-139.5-17.4-49 .5-104.7 19.5-104.7 19.5v116s51-9.5 93.7-9.5c54.7 0 97.1 15.5 151.8 14.1 52.4-1.3 67.6-22.4 67.6-22.4v-112.6c.1-.1-19.8 12.3-68.9 12.3"/><path clip-path="url(#a)" d="m329.6 105.1c0-1.4-1.3-1.6-2.4-1.6h-2.2v3.4h2c1.4 0 2.6-.1 2.6-1.8"/><path clip-path="url(#a)" d="m218.3 84.7-3.2 19.5s16.1 1.4 18-10.3c1.7-9.7-14.8-9.2-14.8-9.2"/><path clip-path="url(#a)" d="m147 86.1c-11.9-.1-23.4 10.1-25.2 22.4s6.5 22.3 18.4 22.4c12 .1 23.1-9.8 24.9-22.1s-6.1-22.6-18.1-22.7"/><path clip-path="url(#a)" d="m329.8 113.1-2.9-4.8h-1.9v4.8h-1.7v-10.9h4.1c2.6 0 3.9.9 3.9 3.1 0 2-1.2 2.8-2.8 3l3.1 4.8zm-2.8-13.4c-4.3 0-7.7 3.4-7.7 7.9 0 4.6 3.4 7.9 7.7 7.9s7.7-3.4 7.7-7.9-3.4-7.9-7.7-7.9"/></g></svg>