<?xml version="1.0" encoding="utf-8"?>
<!-- Generator: Adobe Illustrator 23.0.0, SVG Export Plug-In . SVG Version: 6.00 Build 0)  -->
<svg version="1.1" id="Layer_1" xmlns="http://www.w3.org/2000/svg" xmlns:xlink="http://www.w3.org/1999/xlink" x="0px" y="0px"
	 viewBox="0 0 410.2 277.8" style="enable-background:new 0 0 410.2 277.8;" xml:space="preserve">
<style type="text/css">
	.st0{clip-path:url(#SVGID_2_);fill:#FFFFFF;}
</style>
<g>
	<defs>
		<rect id="SVGID_1_" width="410.2" height="277.8"/>
	</defs>
	<clipPath id="SVGID_2_">
		<use xlink:href="#SVGID_1_"  style="overflow:visible;"/>
	</clipPath>
	<path class="st0" d="M25.3,236.1v40.8H14.9v-40.8H5.1c-3.7,0-5.1-1.5-5.1-5.1v-3.5h35.1c3.7,0,5.1,1.5,5.1,5.1v3.5H25.3z"/>
	<path class="st0" d="M49.9,227.4c3.7,0,5.1,1.5,5.1,5.1v12.3c2.3-3.3,5.6-5.6,11.1-5.6c7.3,0,12.3,4.8,12.3,14.3v23.2h-9.7V256
		c0-5.3-1.3-8.7-6.2-8.7c-5.7,0-7.6,5.2-7.6,11.1v18.4h-9.7v-49.4H49.9z"/>
	<path class="st0" d="M96.5,230.7c0,3.1-2.5,5.5-5.6,5.5c-3,0-5.5-2.4-5.5-5.5c0-3.1,2.5-5.6,5.5-5.6
		C94,225.2,96.5,227.7,96.5,230.7 M95.8,276.9h-9.7v-36.6h4.5c3.7,0,5.1,1.5,5.1,5.1V276.9z"/>
	<path class="st0" d="M108,240.3c3.7,0,5.1,1.5,5.1,5.1v0.1c2.3-3.7,5.7-6.2,11.4-6.2c7.3,0,12.3,4.8,12.3,14.3v23.2h-9.7V256
		c0-5.3-1.3-8.7-6.2-8.7c-5.7,0-7.6,5.2-7.6,11.1v18.4h-9.7v-36.6H108z"/>
	<path class="st0" d="M154.3,254.3l11.3-14h11.7l-14.4,16.6l16.6,20h-12.2l-13.1-15.8v15.8h-9.7v-49.4h4.5c3.7,0,5.1,1.5,5.1,5.1
		V254.3z"/>
	<path class="st0" d="M213.8,246.6c-4.2,0-6.8,1.5-7.2,5H197c0-8.4,8.3-12.2,16.5-12.2c9.6,0,15.7,3.1,15.7,14.3v23.2h-9.2v-5
		c-2.3,3.6-6.1,5.9-12.2,5.9c-7.3,0-11.7-4.3-11.7-10.4c0-8.1,5.6-10.3,13.8-11.5l1-0.1c7.8-1.1,9.2-1.8,9.2-4.9
		C220,248.1,217.6,246.6,213.8,246.6 M220,260.1v-0.7c-1.4,1-3.8,1.5-7.8,2l-1,0.1c-3.7,0.5-5.3,1.9-5.3,4.8c0,2.3,1.5,4.3,4.7,4.3
		C215.1,270.6,220,267.5,220,260.1"/>
	<path class="st0" d="M241.4,227.4c3.7,0,5.1,1.5,5.1,5.1v12.3c2.3-3.3,5.6-5.6,11.1-5.6c7.3,0,12.3,4.8,12.3,14.3v23.2h-9.7V256
		c0-5.3-1.3-8.7-6.2-8.7c-5.7,0-7.6,5.2-7.6,11.1v18.4h-9.7v-49.4H241.4z"/>
	<path class="st0" d="M286.1,261c0.5,5.2,2.8,9.5,8.2,9.5c3.8,0,6-1.5,7.1-4.4h9.7c-1.5,7.8-8.4,11.7-16.8,11.7
		c-10.9,0-17.7-6.8-17.7-19.2c0-10.9,6.9-19.3,17.9-19.3c10.3,0,17.2,6.5,17.2,19v2.7H286.1z M286.4,254.7H302c-0.6-5.6-3.6-8-7.6-8
		C290.2,246.7,287.3,249.7,286.4,254.7"/>
	<path class="st0" d="M334.1,246.6c-4.2,0-6.8,1.5-7.2,5h-9.6c0-8.4,8.3-12.2,16.5-12.2c9.6,0,15.7,3.1,15.7,14.3v23.2h-9.2v-5
		c-2.3,3.6-6.1,5.9-12.2,5.9c-7.3,0-11.7-4.3-11.7-10.4c0-8.1,5.6-10.3,13.8-11.5l1-0.1c7.8-1.1,9.2-1.8,9.2-4.9
		C340.4,248.1,337.9,246.6,334.1,246.6 M340.4,260.1v-0.7c-1.4,1-3.8,1.5-7.8,2l-1,0.1c-3.7,0.5-5.3,1.9-5.3,4.8
		c0,2.3,1.5,4.3,4.7,4.3C335.5,270.6,340.4,267.5,340.4,260.1"/>
	<path class="st0" d="M382.6,276.9v-5.4c-2.7,4.5-6,6.4-11.2,6.4c-9.8,0-15.3-8.4-15.3-19.2c0-10.3,5.1-19.3,15.9-19.3
		c4.2,0,7.8,2.1,10.1,5.6v-17.5h4.5c3.7,0,5.1,1.5,5.1,5.1v44.3H382.6z M366,258.6c0,5.4,2.1,11.2,8.2,11.2c6.1,0,8.2-5.9,8.2-11.3
		c0-5.4-2.1-11.2-8.2-11.2C368.2,247.3,366,253.2,366,258.6"/>
	<path class="st0" d="M410.2,272c0,3.2-2.6,5.8-5.9,5.8c-3.2,0-5.9-2.6-5.9-5.8c0-3.2,2.6-5.9,5.9-5.9
		C407.5,266.2,410.2,268.8,410.2,272"/>
	<path class="st0" d="M52.4,15.3c0,0,43.4-15.2,80-15.2c46.3,0,91.3,21.2,149.2,21.7c57.3,0.5,91-19.4,91-19.4s-16.4,42.1-90.2,42.1
		c-51.8,0-98.2-19.6-134-28.3C106.1,6,52.4,15.3,52.4,15.3"/>
	<path class="st0" d="M304.7,106.3l25.9,40.6h-25.5l-20.7-32.6l-5.8,32.7l-19.4,0l12.4-77.6H291l-4.5,31.6l29.6-31.6l25.5,0.1
		L304.7,106.3z M327,117.1c-5.2,0-9.7-4-9.7-9.5c0-5.4,4.4-9.4,9.7-9.4c5.2,0,9.6,4,9.6,9.4C336.6,113.1,332.2,117.1,327,117.1
		 M254.7,89.1c-1.5,23-20.7,26.6-20.7,26.6l18.5,31.2h-24.5l-14.6-29.5L208,147h-19.6l12.3-77.6l31.1,0.1
		C231.9,69.4,256.1,69,254.7,89.1 M187.6,109.1c-3.6,23.3-26.1,42-50.2,41.9c-24.2-0.1-40.8-19.1-37.3-42.4
		c3.6-23.3,26.8-42.6,51-42.4C175.3,66.4,191.2,85.9,187.6,109.1 M78.3,146.9H57.8l9.5-60.6l-16.4,0l2.8-17.1l53.8,0l-2.6,17.1H87.6
		L78.3,146.9z M281.8,53.8c-47.4,0-95.8-17.9-139.5-17.4c-49,0.5-104.7,19.5-104.7,19.5v116c0,0,51-9.5,93.7-9.5
		c54.7,0,97.1,15.5,151.8,14.1c52.4-1.3,67.6-22.4,67.6-22.4l0-112.6C350.8,41.4,330.9,53.8,281.8,53.8"/>
	<path class="st0" d="M329.6,105.1c0-1.4-1.3-1.6-2.4-1.6H325v3.4h2C328.4,106.9,329.6,106.8,329.6,105.1"/>
	<path class="st0" d="M218.3,84.7l-3.2,19.5c0,0,16.1,1.4,18-10.3C234.8,84.2,218.3,84.7,218.3,84.7"/>
	<path class="st0" d="M147,86.1c-11.9-0.1-23.4,10.1-25.2,22.4c-1.8,12.3,6.5,22.3,18.4,22.4c12,0.1,23.1-9.8,24.9-22.1
		C166.9,96.5,159,86.2,147,86.1"/>
	<path class="st0" d="M329.8,113.1l-2.9-4.8H325v4.8h-1.7v-10.9h4.1c2.6,0,3.9,0.9,3.9,3.1c0,2-1.2,2.8-2.8,3l3.1,4.8H329.8z
		 M327,99.7c-4.3,0-7.7,3.4-7.7,7.9c0,4.6,3.4,7.9,7.7,7.9c4.3,0,7.7-3.4,7.7-7.9C334.7,103.1,331.3,99.7,327,99.7"/>
</g>
</svg>
